<?xml version="1.0" standalone="no"?><!DOCTYPE svg PUBLIC "-//W3C//DTD SVG 1.1//EN" "http://www.w3.org/Graphics/SVG/1.1/DTD/svg11.dtd"><svg t="1636023084668" class="icon" viewBox="0 0 1024 1024" version="1.1" xmlns="http://www.w3.org/2000/svg" p-id="3919" xmlns:xlink="http://www.w3.org/1999/xlink" width="200" height="200"><defs><style type="text/css"></style></defs><path d="M180.74 331.63m40.06 0l45.12 0q40.06 0 40.06 40.06l0 419.97q0 40.06-40.06 40.06l-45.12 0q-40.06 0-40.06-40.06l0-419.97q0-40.06 40.06-40.06Z" fill="#d81e06" p-id="3920"></path><path d="M448.55 331.63m40.06 0l45.12 0q40.06 0 40.06 40.06l0 419.97q0 40.06-40.06 40.06l-45.12 0q-40.06 0-40.06-40.06l0-419.97q0-40.06 40.06-40.06Z" fill="#d81e06" p-id="3921"></path><path d="M734.578861 328.699834m39.219137-8.164734l44.172927-9.196026q39.219137-8.164734 47.383871 31.054404l85.595188 411.154794q8.164734 39.219137-31.054404 47.383871l-44.172927 9.196026q-39.219137 8.164734-47.383871-31.054404l-85.595188-411.154794q-8.164734-39.219137 31.054404-47.383871Z" fill="#d81e06" p-id="3922"></path><path d="M264.45 861.79H152.57a72.14 72.14 0 0 1-72.06-72.06V229.86a72.15 72.15 0 0 1 72.06-72.07h111.88a72.15 72.15 0 0 1 72.06 72.07v559.87a72.14 72.14 0 0 1-72.06 72.06z m-111.88-640a8.07 8.07 0 0 0-8.06 8.07v559.87a8.06 8.06 0 0 0 8.06 8.06h111.88a8.07 8.07 0 0 0 8.06-8.06V229.86a8.08 8.08 0 0 0-8.06-8.07z" fill="#d81e06" p-id="3923"></path><path d="M206.18 331.63m-36 0a36 36 0 1 0 72 0 36 36 0 1 0-72 0Z" fill="#d81e06" p-id="3924"></path><path d="M534.57 861.79H422.69a72.14 72.14 0 0 1-72.06-72.06V229.86a72.15 72.15 0 0 1 72.06-72.07h111.88a72.15 72.15 0 0 1 72.06 72.07v559.87a72.14 72.14 0 0 1-72.06 72.06z m-111.88-640a8.08 8.08 0 0 0-8.06 8.07v559.87a8.07 8.07 0 0 0 8.06 8.06h111.88a8.07 8.07 0 0 0 8.06-8.06V229.86a8.08 8.08 0 0 0-8.06-8.07z" fill="#d81e06" p-id="3925"></path><path d="M476.3 331.63m-36 0a36 36 0 1 0 72 0 36 36 0 1 0-72 0Z" fill="#d81e06" p-id="3926"></path><path d="M792.07 858.33A72.18 72.18 0 0 1 721.36 800L614.53 250.42a72.14 72.14 0 0 1 57-84.49l109.83-21.34a72.14 72.14 0 0 1 84.48 57l106.81 549.57a72 72 0 0 1-57 84.49L805.84 857a72 72 0 0 1-13.77 1.33z m3.07-651.08a8.16 8.16 0 0 0-1.59 0.16l-109.82 21.35a8.07 8.07 0 0 0-6.38 9.45L784.18 787.8a8.08 8.08 0 0 0 9.45 6.38l109.82-21.35a8.07 8.07 0 0 0 6.38-9.45L803 213.79a8.1 8.1 0 0 0-7.86-6.54z" fill="#d81e06" p-id="3927"></path><path d="M754.98 326.85m-36 0a36 36 0 1 0 72 0 36 36 0 1 0-72 0Z" fill="#d81e06" p-id="3928"></path><path d="M293.41 486h-180.9a30 30 0 1 1 0-60h180.9a30 30 0 1 1 0 60zM569.08 486h-180.9a30 30 0 0 1 0-60h180.9a30 30 0 0 1 0 60zM694.34 494.39a30 30 0 0 1-5.7-59.46l177.58-34.51a30 30 0 0 1 11.45 58.89l-177.58 34.52a29.79 29.79 0 0 1-5.75 0.56z" fill="#d81e06" p-id="3929"></path></svg>