<?xml version="1.0" standalone="no"?><!DOCTYPE svg PUBLIC "-//W3C//DTD SVG 1.1//EN" "http://www.w3.org/Graphics/SVG/1.1/DTD/svg11.dtd"><svg t="1636023113422" class="icon" viewBox="0 0 1024 1024" version="1.1" xmlns="http://www.w3.org/2000/svg" p-id="4454" xmlns:xlink="http://www.w3.org/1999/xlink" width="200" height="200"><defs><style type="text/css"></style></defs><path d="M254.55 581.32m120 0l293.71 0q120 0 120 120l0 70.14q0 120-120 120l-293.71 0q-120 0-120-120l0-70.14q0-120 120-120Z" fill="#d81e06" p-id="4455"></path><path d="M484.34 475.65c-100 0-181.4-81.37-181.4-181.39s81.38-181.39 181.4-181.39 181.39 81.38 181.39 181.39-81.38 181.39-181.39 181.39z m0-298.78a117.39 117.39 0 1 0 117.39 117.39 117.54 117.54 0 0 0-117.39-117.39zM490.41 644.8l-49 122.34a27.39 27.39 0 0 0 6.06 29.54l23.59 23.59a27.37 27.37 0 0 0 38.71 0l23.59-23.59a27.39 27.39 0 0 0 6.06-29.54z" fill="#d81e06" p-id="4456"></path><path d="M520.14 683.34h-59.46a16.9 16.9 0 0 1-16.4-12.8l-8.06-32.24a16.9 16.9 0 0 1 16.4-21h75.57a16.9 16.9 0 0 1 16.4 21l-8.06 32.24a16.9 16.9 0 0 1-16.39 12.8z" fill="#d81e06" p-id="4457"></path><path d="M148.92 912.88a32 32 0 0 1-32-32V758.37a243.52 243.52 0 0 1 243.52-243.51h249a243.14 243.14 0 0 1 76 12.11 32 32 0 1 1-20 60.8 179.57 179.57 0 0 0-56.06-8.91h-249c-99 0-179.52 80.53-179.52 179.51v122.51a32 32 0 0 1-31.94 32zM788.53 825.27c-68.37 0-124-56-124-124.82s55.63-124.83 124-124.83 124 56 124 124.83-55.62 124.82-124 124.82z m0-193.65c-37.49 0-68 30.88-68 68.83s30.51 68.82 68 68.82 68-30.87 68-68.82-30.53-68.83-68-68.83z" fill="#d81e06" p-id="4458"></path><path d="M875.49 939.46a28 28 0 0 1-9.18-1.55l-77.24-26.81-77.25 26.81a28 28 0 0 1-37.18-26.45V746.39a28 28 0 0 1 56 0V872.1l49.25-17.1a27.92 27.92 0 0 1 18.36 0l49.24 17.09V748.76a28 28 0 0 1 56 0v162.7a28 28 0 0 1-28 28z" fill="#d81e06" p-id="4459"></path></svg>