<?xml version="1.0" standalone="no"?><!DOCTYPE svg PUBLIC "-//W3C//DTD SVG 1.1//EN" "http://www.w3.org/Graphics/SVG/1.1/DTD/svg11.dtd"><svg t="1641394014976" class="icon" viewBox="0 0 1024 1024" version="1.1" xmlns="http://www.w3.org/2000/svg" p-id="2410" xmlns:xlink="http://www.w3.org/1999/xlink" width="16" height="16"><defs><style type="text/css"></style></defs><path d="M297.770667 766.677333a32 32 0 0 1-32-32V196.352a32 32 0 0 1 64 0v538.325333a32 32 0 0 1-32 32z" fill="#2c2c2c" p-id="2411"></path><path d="M123.690667 403.2a32 32 0 0 1-28.245334-46.933333c16.938667-32.042667 106.410667-192 202.282667-192 95.829333 0 185.301333 159.914667 202.282667 192a32 32 0 0 1-56.576 29.909333C409.685333 322.517333 340.010667 228.266667 297.728 228.266667c-42.282667 0-111.957333 94.208-145.749333 157.909333a31.957333 31.957333 0 0 1-28.288 17.024zM721.322667 860.928a32 32 0 0 1-32-32V290.56a32 32 0 0 1 64 0v538.368a32 32 0 0 1-32 32z" fill="#2c2c2c" p-id="2412"></path><path d="M721.365333 860.970667c-95.829333 0-185.344-159.914667-202.282666-192a32.042667 32.042667 0 0 1 56.576-29.952c33.749333 63.701333 103.466667 157.952 145.706666 157.952s111.914667-94.250667 145.664-157.952a32.042667 32.042667 0 0 1 56.618667 29.952c-16.981333 32.085333-106.496 192-202.282667 192z" fill="#2c2c2c" p-id="2413"></path></svg>